# xmcd
#
# Track frame offsets:
#	150
#	15827
#	29446
#	41446
#	55100
#	66390
#	80086
#	92554
#	106084
#	117450
#	130395
#	139442
#
# Disc length: 2333 seconds
#
# Revision: 1
# Processed by: cddbd v1.5.2PL0 Copyright (c) Steve Scherf et al.
# Submitted via: audiograbber 1.83.01
#
DISCID=a1091b0c
DTITLE=Lousy - Moments Of Fame
DYEAR=2009
DGENRE=Rock
TTITLE0=Mic Check
TTITLE1=Right Time Blues
TTITLE2=Barbecue Circlepit
TTITLE3=Charlotte
TTITLE4=Cheap Stuff
TTITLE5=John Wayne
TTITLE6=Soulpower
TTITLE7=Normanskie Snibitzky Ahoi
TTITLE8=Jeffrey
TTITLE9=Bears and Stalactities
TTITLE10=V.I.P. Corruption
TTITLE11=1967
EXTD=
EXTT0=
EXTT1=
EXTT2=
EXTT3=
EXTT4=
EXTT5=
EXTT6=
EXTT7=
EXTT8=
EXTT9=
EXTT10=
EXTT11=
PLAYORDER=
